<svg xmlns="http://www.w3.org/2000/svg" width="591" height="591">
    <path
        d="M319 56c2.58 7.367 4.649 14.844 6.644 22.386.55 2.073 1.104 4.143 1.659 6.214a7828.42 7828.42 0 012.01 7.562C330 95 330 95 330 97l3.777.309c5.77.64 11.215 2.164 16.786 3.754l3.056.853c2.462.688 4.922 1.383 7.381 2.084 5.328-5.245 5.328-5.245 10.313-10.813 3.6-4.188 7.5-8.035 11.453-11.89A51.157 51.157 0 00388 75c4.99.553 8.97 2.21 13.375 4.5l2.092 1.07a566.017 566.017 0 0114.908 7.992l1.869 1.028C425.75 92.695 430.865 96.32 436 100c-1.103 4.271-2.208 8.542-3.313 12.813l-.935 3.623-.928 3.584-.916 3.557c-1.078 4.066-2.258 8.1-3.479 12.125-.479 2.564-.412 3.89.571 6.298 1.402 1.707 1.402 1.707 3.203 3.242l1.973 1.793 2.074 1.84c4.63 4.147 8.895 8.24 12.75 13.125 5.547-1.108 10.932-2.532 16.336-4.2l1.971-.606a1661.59 1661.59 0 008.144-2.534c2-.628 4.005-1.244 6.01-1.86 1.184-.369 2.368-.738 3.587-1.12C486 151 486 151 489 152a96.47 96.47 0 014.563 6.5l1.315 2.01c4.97 7.675 9.624 15.531 14.122 23.49l1.773 3.121c3.258 6.057 3.258 6.057 3.143 9.11-1.31 3.963-3.985 6.332-6.92 9.164l-1.812 1.794a1065.529 1065.529 0 01-5.746 5.624 3800.64 3800.64 0 00-3.89 3.833A2203.107 2203.107 0 01486 226l.593 2.057c1.31 4.659 2.519 9.254 3.302 14.033 1.356 8.96 1.356 8.96 6.628 15.808 2.986.863 5.869 1.371 8.952 1.731 4.327.636 8.548 1.736 12.798 2.756 3.505.842 7.016 1.649 10.532 2.443l3.03.685L534 266c2.044 9.901 2.097 19.987 2.125 30.063l.014 2.68c-.016 7.12-.521 14.168-1.139 21.257a9558.515 9558.515 0 01-16.07 4.272c-1.824.484-3.646.97-5.468 1.456a3746.09 3746.09 0 01-7.857 2.084c-.815.22-1.631.438-2.471.663-3.12.822-5.893 1.525-9.134 1.525l-.336 3.89c-.663 5.985-2.329 11.596-4.023 17.356-1.783 5.887-1.783 5.887-.641 11.754 2.229 2.752 2.229 2.752 5.062 5.375l1.508 1.46a225.4 225.4 0 008.617 7.853c1.272 1.102 2.543 2.207 3.813 3.312l2.305 1.992 2.257 2.07 2.067 1.848C516 389 516 389 515.984 391.672c-1.311 4.435-3.203 8.4-5.297 12.515-.435.865-.87 1.73-1.32 2.621C497.901 429.1 497.901 429.1 491 436c-9.025-.461-18.292-4.256-26.933-6.767a1019.7 1019.7 0 00-5.782-1.651l-3.441-.993c-2.9-.849-2.9-.849-5.844.411-1.442 1.423-1.442 1.423-2.875 3.25-2.348 2.859-4.77 5.356-7.578 7.75l-1.829 1.624a89.138 89.138 0 01-3.714 3.104c-1.879 1.7-2.996 2.938-4.004 5.272.258 4.232 1.637 8.008 3 12 .688 2.357 1.37 4.717 2.043 7.078a3482.54 3482.54 0 002.144 7.172l1.116 3.738A6029.85 6029.85 0 00440 487c-3.544 3.75-7.246 6.784-11.563 9.625l-1.923 1.273c-5.557 3.609-11.28 6.895-17.077 10.102l-2.558 1.42-2.445 1.33-2.155 1.172c-2.661 1.259-5.486 2.147-8.279 3.078l-29-29c-7.585 2.253-7.585 2.253-15.166 4.517-5.277 1.554-10.356 2.925-15.834 3.483l-.445 2.402c-1.675 8.712-3.623 17.344-5.68 25.973l-.805 3.406-.765 3.18-.688 2.869C325 534 325 534 324 535c-8.676 1.44-17.631 1.154-26.399 1.13-2.36-.005-4.72 0-7.081.007-1.523 0-3.045-.002-4.567-.004l-2.106.006c-4.39-.02-8.528-.432-12.847-1.139l-.902-3.457c-1.103-4.223-2.209-8.446-3.316-12.668l-1.434-5.489a7617.23 7617.23 0 00-2.063-7.878l-.647-2.488c-1.04-4.11-1.04-4.11-2.638-8.02-2.413-.833-2.413-.833-5.355-1.473l-3.327-.787-3.506-.803-3.447-.814A494.115 494.115 0 00235 489l-3.168-.763c-2.784-.515-2.784-.515-4.655.884l-1.509 1.746-1.717 1.923-1.764 2.085a2951.848 2951.848 0 01-3.699 4.172l-1.802 2.06c-2.174 2.441-4.471 4.736-6.811 7.018-2.854 2.811-5.482 5.65-7.875 8.875-6.36-1.917-12.147-4.367-18-7.5l-2.453-1.305a281.164 281.164 0 01-17.11-10.07l-2.181-1.37-2.01-1.31-1.76-1.14c-1.993-1.75-2.752-2.717-3.486-5.305a74.71 74.71 0 012.062-8.125l.696-2.375c.982-3.353 1.998-6.694 3.01-10.037.735-2.443 1.453-4.89 2.17-7.338l.713-2.286c1.226-4.103 1.226-4.103.575-8.238-1.404-1.833-2.872-3.438-4.539-5.038l-1.894-1.84L156 442c-5-5-5-5-6.582-6.898l-1.73-1.977-1.551-1.867c-3.443-2.027-6.434-1.136-10.137-.258-5.117 1.415-10.184 2.976-15.25 4.563-2.044.638-4.088 1.275-6.135 1.905a1360 1360 0 00-5.534 1.722C106 440 106 440 102 440a56.31 56.31 0 01-4.625-6.438l-1.304-2.028A456.75 456.75 0 0192 425l-1.34-2.186A503.571 503.571 0 0182 408l-1.05-1.853c-.921-1.641-1.812-3.3-2.7-4.96l-1.484-2.769C76 396 76 396 76.57 394.242c2.08-3.263 4.785-5.842 7.53-8.539l1.808-1.799c1.9-1.89 3.808-3.772 5.716-5.654l3.875-3.848c3.161-3.14 6.329-6.272 9.5-9.402l-.627-2.092c-.942-3.155-1.876-6.313-2.81-9.47l-.987-3.292C98.99 344.765 97.57 339.588 97 334l-3.043-.285c-6.159-.772-12.177-2.255-18.213-3.671a1093.46 1093.46 0 00-6.207-1.429l-3.963-.924-3.606-.837C59 326 59 326 56 324c-2.025-8.043-1.154-17.211-1.13-25.49.005-2.204 0-4.409-.007-6.614 0-1.427.002-2.855.004-4.283l.004-3.85c.137-3.99.578-7.81 1.129-11.763 7.367-2.58 14.844-4.649 22.386-6.644 2.073-.55 4.143-1.104 6.214-1.659a7828.42 7828.42 0 017.562-2.01C95 261 95 261 97 261l.187-3.875c.578-6.183 2.346-11.968 4.173-17.878l.68-2.27.63-2.03c.4-2.364.188-3.709-.67-5.947-1.355-1.781-1.355-1.781-3.098-3.426l-1.918-1.905c-.675-.654-1.35-1.308-2.047-1.981l-2.07-2.037c-3.982-3.896-8.024-7.691-12.281-11.288-2.326-2-4.451-4.161-6.586-6.363 1.431-4.658 3.31-8.97 5.5-13.312l1.044-2.078c2.716-5.322 5.622-10.519 8.643-15.672l1.223-2.09c2.651-4.454 5.528-8.665 8.59-12.848 8.922.604 17.195 3.178 25.727 5.712a791.44 791.44 0 005.757 1.67l3.43 1.013c3.166.62 5.037.595 8.086-.395 2.2-1.934 2.2-1.934 4.187-4.437 4.02-4.752 8.342-8.869 13.04-12.946 2.027-2.992 2.107-4.543 1.44-8.052-1.742-6.7-3.85-13.292-5.952-19.885-.635-2-1.258-4.004-1.88-6.008a2602.9 2602.9 0 00-1.138-3.59c-.667-2.95-.88-4.346.303-7.082 3.036-2.725 6.57-4.802 10-7l2.887-1.879c6.558-4.156 13.293-7.976 20.113-11.683l2.465-1.377 2.347-1.252 2.083-1.132c2.784-.895 4.348-.612 7.105.323 1.681 1.494 1.681 1.494 3.21 3.434 4.229 5.126 8.77 9.879 13.415 14.629 1.25 1.317 1.25 1.317 2.523 2.662l2.454 2.498 2.197 2.273c2.096 1.767 2.096 1.767 4.653 1.326L230 104l2.524-.648 2.636-.727 2.904-.797 2.998-.828 5.91-1.625 2.634-.727A338.582 338.582 0 01256 97l10-40c17.759-1.92 35.193-3.027 53-1zM199 175l-1.661 1.337c-6.705 5.425-12.89 10.947-18.339 17.663l-2.324 2.633C170.07 204.218 164.836 212.19 160 221l-1.07 1.938c-19.387 35.561-23.141 77.591-12.078 116.394 12.558 40.112 39.439 73.963 76.962 93.618C261.013 451.662 303.192 455.448 343 443c26.501-8.844 52.346-25.148 70-47l2.371-2.934C435.603 367.617 448.661 336.707 450 304l.16-3.71c1.174-41.088-14.16-80.136-42.155-110.071A1991.63 1991.63 0 00404 186l-1.914-2.11c-25.91-27.62-65.359-41.185-102.332-43.054C263.256 139.94 227.344 152.032 199 175z"
        fill="#00A2FE" />
    <path
        d="M392.46 184.086c10.8 9.434 19.91 19.757 27.54 31.914l1.132 1.795C441.672 250.905 447.678 291.14 439 329c-6.643 27.526-20.382 50.677-40 71l-1.632 1.705C378.045 421.52 351.096 434.936 324 440l-2.839.53c-8.39 1.436-16.594 1.857-25.099 1.845l-2.039-.003c-39.442-.168-74.554-15.51-102.648-42.935L189 397l-1.688-1.516c-6.527-6.054-11.263-13.246-16.112-20.652a345.806 345.806 0 00-2.954-4.422c-19.691-30.53-24.65-71.505-17.21-106.543C155.792 243.13 164.317 224.11 177 207c.59-.816 1.18-1.632 1.79-2.473 10.557-13.93 23.367-25.4 38.21-34.527l1.82-1.14c54.782-34.017 125.327-25.726 173.64 15.226zM199 203c-27.859 31.272-37.483 65.743-36 107 .398 5.823 1.433 11.374 3 17l.684 2.46c9.866 34.254 31.082 62.433 61.851 80.634 31.015 17.063 66.376 23.009 101.004 13.77 3.883-1.132 7.668-2.46 11.461-3.864l3.086-1.117C358.075 413.445 370.479 405.522 382 396c.77-.63 1.542-1.258 2.336-1.906 4.717-3.976 8.808-8.282 12.664-13.094l1.215-1.514C413.349 360.383 422.816 338.99 427 315l.559-3.121C429.328 296.33 428.79 280.196 425 265l-.488-2.053C420.478 246.347 413.19 230.716 403 217c-.59-.81-1.178-1.622-1.785-2.457-9.512-12.5-20.95-23.164-34.215-31.543l-1.866-1.183C345.547 169.63 323.087 162.81 300 162l-2.313-.121C260.692 160.816 224.752 176.797 199 203z"
        fill="#00A1FC" />
    <path
        d="M228.625 207.688l3.429.014c27.774.385 58.016 10.083 77.946 30.298v1l-1.694.018c-5.924.065-11.847.15-17.77.244-2.198.033-4.397.061-6.595.084-17.51.188-34.897.888-51.566 6.779l-2.632.911c-20.583 7.401-37.405 19.745-52.37 35.526-2.086 2.185-4.23 4.31-6.373 6.438.92-29.028 12.277-58.277 33-79 8.056-2.108 16.345-2.356 24.625-2.313zM245 325c2.812 1.278 4.826 2.588 6.97 4.806l1.672 1.712 1.784 1.853 3.857 3.932c2 2.049 3.997 4.101 5.988 6.16 24.97 25.768 55.298 42.687 91.935 43.619 7.266.083 14.53.032 21.794-.082-18.856 19.149-46.36 30.814-73.125 32.625-8.334-.057-12.891-4.256-18.875-9.625l-2.434-1.992C261.3 388.57 248.556 358.506 245 329v-4z"
        fill="#E5E5E5" />
    <path
        d="M265 245c-1.281 2.82-2.598 4.835-4.822 6.986l-1.722 1.682c-.615.592-1.23 1.183-1.862 1.793l-3.946 3.871a1845.6 1845.6 0 01-6.186 6.014c-27.202 26.366-42.52 58.32-43.535 96.383-.08 5.426-.037 10.845.073 16.271-17.286-17.022-26.936-39.325-31-63l-.406-2.164c-1.078-6.076-1.77-11.48 1.078-17.184 2.271-3.097 4.69-5.863 7.328-8.652l1.996-2.422C201.08 261.567 234.784 244.245 265 245zm122-33c9.23 3.077 16.305 19.435 20.565 27.672 7.314 14.8 13.444 33.367 12.236 50.086C412.62 309.86 387.062 326.244 369 335c-14.358 6.394-28.37 9.425-44 10 3.66-4.492 7.572-8.635 11.703-12.695l1.593-1.57c2.194-2.157 4.39-4.313 6.598-6.458 10.004-9.738 19.274-19.947 25.918-32.34l1.115-2.034C385.49 264.715 387.535 239.913 387 212zm-89.125-37.375c2.1 1.756 4.12 3.519 6.125 5.375.57.52 1.14 1.04 1.729 1.575C329.534 203.526 344.072 232.42 346 265c-4.115-1.616-6.8-4.597-9.805-7.715a20407.57 20407.57 0 00-3.46-3.521c-1.791-1.834-3.579-3.67-5.363-5.508-24.053-24.74-54.179-44.199-89.829-45.37l-3.57.016-3.897.01-4.013.025A3709.203 3709.203 0 00212 203c16.34-16.594 63.135-44.792 85.875-28.375z"
        fill="#E5E5E5" />
    <path
        d="M419 301c4.553 13.66-5.069 35.791-11.03 48.064-4.087 8.152-8.541 16.013-14.411 23.034-1.57 1.823-1.57 1.823-2.649 3.71-1.655 2.605-3.398 4.019-6.3 5-30.373 5.765-64.043-1.045-89.84-17.921A183.547 183.547 0 01287 357l-2.004-1.578A107.251 107.251 0 01281 352v-1l1.784-.018c6.215-.065 12.43-.15 18.644-.244 2.31-.033 4.618-.062 6.927-.084 38.696-.395 72.265-10.437 100.2-38.18 3.624-3.698 7.078-7.541 10.445-11.474zm-181-20h1l.06 3.677c.077 4.587.166 9.174.257 13.76.038 1.97.073 3.94.105 5.909.253 15.516.582 31.164 4.766 46.217l.649 2.38C251.825 377.445 265.966 396.418 284 414a1467.44 1467.44 0 015 5c-25.688 1.632-52.713-11.12-72.434-26.676-5.62-5.09-7.226-8.504-7.816-15.887l-.226-2.437c-2.882-33.163 6.096-64.485 27.18-90.355L238 281zm64-110c26.122-.778 53.586 10.999 73 28l2.637 1.54c6.473 6.74 4.749 19.81 4.738 28.523v2.065C382.347 242.2 381.27 252.388 378 263l-.875 3.184C372.545 281.58 363.943 297.275 353 309h-1l-.06-3.37c-.078-4.226-.166-8.451-.257-12.676-.038-1.81-.073-3.62-.105-5.43-.35-23.822-.35-23.822-4.765-47.149l-.648-2.34C339.05 213.299 325.364 193.663 307 176a976.52 976.52 0 01-5-5z"
        fill="#E5E5E5" />
</svg>